<svg viewBox="0 0 1585.95 331.13" xmlns="http://www.w3.org/2000/svg"><g fill="#0086cd"><path d="m204.17 331.13h-98.6q-55.81 0-80.69-21.63t-24.88-70.45v-239.05h64.64v239.05q0 19.53 8.84 27t32.09 7.44h98.6z"/><path d="m448.32 331.13h-117.2q-55.8 0-78.36-19.3t-22.56-68.13v-243.7h218.12v57.67h-153.47v77.67h107.43l-4.65 57.66h-102.78v46.05q0 19.53 8.83 27t32.09 7.44h112.55z"/><path d="m721.31 235.79q0 46-24.88 70.69t-69.53 24.65h-44.64q-54.88 0-77.9-19.07t-23-66v-246.06h140q47.45 0 71.39 23.72t23.95 67q0 25.11-12.79 42.79t-28.13 25.11q45.53 21.38 45.53 77.17zm-105.1-106.5q35.81 0 35.81-35.81t-35.81-35.81h-70.21v71.62zm40.46 103.24q0-22.32-7.91-33.71t-28.37-11.4h-74.39v52.09q0 19.08 9.54 26.51t31.39 7.44h33.48q36.27 0 36.26-40.93z"/><path d="m1008.26 331.13h-67.44l-18.6-57.2h-111.15l-18.14 57.2h-67.43l106-303.23q7-15.79 15.58-21.85t21.16-6q12.56 0 20.23 5.58t13.75 22.27zm-100.92-111.62-39.07-131.15-40.92 131.15z"/><path d="m1283.57 331.13h-74.88l-64.64-122.78h-46.51v122.78h-64.64v-260q0-37.21 17.21-54.18t57.66-17h54.88q49.29 0 78.37 30t29.06 76q0 33.48-17.44 57.9t-43 33.71zm-91.39-190.91q13.26-14.17 13.26-35.35t-12.79-34.18q-12.8-13-34.18-13h-32.09q-28.85 0-28.84 29.3v67.41h60.93q20.46 0 33.71-14.18z"/><path d="m1586 331.13h-67.43l-18.6-57.2h-111.21l-18.13 57.2h-67.44l106-303.23q7-15.79 15.58-21.85t21.23-6.05q12.55 0 20.23 5.58t13.72 22.32zm-101-111.62-39-131.15-41 131.15z"/></g></svg>